<svg width="32" height="30" viewBox="0 0 32 30" fill="none" xmlns="http://www.w3.org/2000/svg">
<path d="M19.2251 3.36877L17.1501 4.76577L15.6672 3.74523L15.142 3.38376L12.9861 1.89989C13.8429 1.32572 14.703 0.749545 15.5664 0.171373C15.6908 0.0880777 15.8374 0.0441131 15.9872 0.0451852C16.1369 0.0462572 16.2829 0.0923163 16.4062 0.177385L19.291 2.07064C19.3875 2.1516 19.4639 2.25383 19.5142 2.36929C19.5645 2.48475 19.5874 2.61031 19.581 2.7361C19.5746 2.86189 19.5392 2.98448 19.4774 3.09426C19.4157 3.20403 19.3293 3.298 19.2251 3.36877Z" fill="#FAFAFA"/>
<path d="M31.6642 11.591C26.5735 15.0001 21.6666 18.3014 16.7217 21.5437C16.4753 21.6515 16.2072 21.7008 15.9386 21.6878C15.6699 21.6748 15.4078 21.5999 15.1729 21.4688C10.265 18.2584 5.391 14.9961 0.331269 11.623C0.229471 11.5545 0.146028 11.4622 0.088268 11.354C0.0305083 11.2458 0.000198839 11.125 9.7502e-07 11.0024C-0.000196889 10.8797 0.029723 10.7589 0.0871333 10.6505C0.144544 10.5421 0.227688 10.4495 0.329266 10.3807C3.79129 8.06107 7.18641 5.78635 10.5985 3.49963L14.8374 6.32357L8.84406 10.3588C8.74437 10.4272 8.66277 10.5187 8.60626 10.6256C8.54975 10.7325 8.52003 10.8514 8.51963 10.9723C8.51924 11.0932 8.54819 11.2124 8.604 11.3196C8.65981 11.4269 8.74081 11.519 8.84005 11.588C11.0609 13.1388 12.9312 14.4888 15.0701 15.8449C15.398 15.9695 15.7483 16.0246 16.0987 16.0065C16.449 15.9885 16.7918 15.8977 17.1052 15.74C20.7389 13.3824 24.3218 10.9489 28.0045 8.47848C28.1265 8.39633 28.2702 8.35212 28.4173 8.35141C28.5644 8.35069 28.7085 8.39351 28.8313 8.47447L31.6962 10.3708C31.793 10.4416 31.8712 10.5349 31.924 10.6427C31.9769 10.7504 32.0029 10.8693 31.9997 10.9892C31.9966 11.1092 31.9644 11.2266 31.906 11.3314C31.8476 11.4362 31.7646 11.5253 31.6642 11.591Z" fill="#FAFAFA"/>
<path d="M30.9795 15.8492V19.7654C30.9792 19.8875 30.9489 20.0076 30.8915 20.1152C30.834 20.2229 30.751 20.3149 30.6498 20.383C25.4573 23.8814 20.5936 27.1829 16.5791 29.8396C16.3663 29.9274 16.1364 29.9658 15.9067 29.952C15.6769 29.9382 15.4533 29.8725 15.2526 29.7599C11.2784 27.1332 6.45363 23.8796 1.32996 20.431C1.22864 20.3629 1.14558 20.2709 1.08806 20.1632C1.03054 20.0555 1.00031 19.9353 1.00001 19.8132V15.8672C0.999337 15.7325 1.03537 15.6002 1.10423 15.4844C1.1731 15.3686 1.2722 15.2738 1.39089 15.2101C1.50958 15.1464 1.64338 15.1162 1.77792 15.1228C1.91246 15.1294 2.04267 15.1726 2.15455 15.2476C4.88 17.0824 11.6984 21.6938 14.5544 23.7056C15.5917 24.4337 16.3297 24.4936 17.397 23.7355C20.6462 21.4314 26.0702 17.7759 29.8246 15.2299C29.9364 15.1545 30.0666 15.111 30.2013 15.1042C30.336 15.0974 30.47 15.1275 30.5888 15.1912C30.7077 15.2549 30.8069 15.3499 30.8757 15.4659C30.9445 15.5818 30.9804 15.7144 30.9795 15.8492Z" fill="#FAFAFA"/>
</svg>
